<?xml version="1.0" encoding="UTF-8" standalone="no"?>
<!-- Created with Inkscape (http://www.inkscape.org/) -->

<svg
   width="99.747917mm"
   height="68.914474mm"
   viewBox="0 0 99.747917 68.914474"
   version="1.1"
   id="svg1"
   inkscape:version="1.4 (86a8ad7, 2024-10-11)"
   sodipodi:docname="logo_64_f_n.svg"
   xmlns:inkscape="http://www.inkscape.org/namespaces/inkscape"
   xmlns:sodipodi="http://sodipodi.sourceforge.net/DTD/sodipodi-0.dtd"
   xmlns="http://www.w3.org/2000/svg"
   xmlns:svg="http://www.w3.org/2000/svg">
  <sodipodi:namedview
     id="namedview1"
     pagecolor="#ffffff"
     bordercolor="#666666"
     borderopacity="1.0"
     inkscape:showpageshadow="2"
     inkscape:pageopacity="0.0"
     inkscape:pagecheckerboard="0"
     inkscape:deskcolor="#d1d1d1"
     inkscape:document-units="mm"
     inkscape:zoom="0.68862935"
     inkscape:cx="228.7152"
     inkscape:cy="157.55936"
     inkscape:window-width="1920"
     inkscape:window-height="991"
     inkscape:window-x="-1"
     inkscape:window-y="1341"
     inkscape:window-maximized="1"
     inkscape:current-layer="layer2" />
  <defs
     id="defs1" />
  <g
     inkscape:groupmode="layer"
     id="layer2"
     inkscape:label="Capa 2">
    <g
       id="g182"
       transform="matrix(0.82413793,0,0,0.82413793,-69.513047,-81.312286)">
      <path
         id="path2"
         style="font-weight:800;font-size:82.4833px;line-height:1.25;font-family:'Open Sans';-inkscape-font-specification:'Open Sans Ultra-Bold';text-align:center;text-anchor:middle;fill:#cc0000;stroke-width:4.41873"
         d="m 115.50664,98.625325 c -5.20868,5e-5 -9.62521,0.657913 -13.24984,1.973525 -3.624761,1.31565 -6.59165,3.12778 -8.90075,5.43688 -2.3091,2.28225 -4.094829,4.91374 -5.356779,7.89409 -1.26195,2.95351 -2.134628,6.10829 -2.617928,9.46454 -0.4833,3.32941 -0.72502,6.68552 -0.72502,10.06863 0,4.4034 0.550728,8.22951 1.651578,11.47837 1.1277,3.222 2.68465,5.89387 4.67155,8.01502 2.01375,2.0943 4.363149,3.65124 7.048149,4.67154 2.71185,1.0203 5.65183,1.53066 8.82013,1.53066 0.3545,0 0.69863,-0.0142 1.0449,-0.0253 l -0.0243,0.0346 v 11.67991 h 23.48074 v 11.39775 h 15.70705 v -11.39775 h 7.93957 v -11.88145 h -7.93957 v -35.60299 h -14.70039 l -2.67374,3.90932 c -1.2998,-2.57153 -3.096,-4.55401 -5.40174,-5.93245 -2.47021,-1.5036 -5.42364,-2.29599 -8.86044,-2.29599 -1.75722,-0.12063 -3.45752,-0.0901 -5.20743,-0.0222 -1.68566,0.0814 -3.20644,0.46803 -4.45245,0.98909 -1.47675,0.5907 -2.7252,1.40955 -3.7455,2.4567 -0.99346,1.0203 -1.83922,2.17507 -2.537317,3.46387 h -0.483174 c 0.1611,-3.1146 0.751685,-5.78647 1.771981,-8.01502 1.0203,-2.22855 2.67145,-3.93353 4.95371,-5.11493 2.3091,-1.20825 5.45042,-1.81229 9.42423,-1.81229 1.9869,0 3.66548,0.0807 5.03483,0.24184 1.36935,0.13425 2.60435,0.30869 3.7052,0.52349 V 99.310037 c -1.10085,-0.18795 -2.48387,-0.349441 -4.14858,-0.483691 -1.66448,-0.13424 -3.0737,-0.201001 -4.22817,-0.201021 z m -3.16622,32.952515 c 4.75402,0.0759 6.49263,2.71554 6.49263,6.78873 0,3.30979 -0.91705,6.52311 -6.89002,6.52311 -5.39799,0 -5.9924,-3.2464 -5.9924,-6.55618 0,-4.27086 1.34998,-6.67143 5.92005,-6.75515 0.15968,-0.003 0.31639,-0.003 0.46974,-5.1e-4 z m 19.31148,11.88299 h 0.0594 c -0.0268,0.0537 -0.0672,0.41602 -0.12092,1.08727 -0.0268,0.6444 -0.0672,1.44979 -0.12092,2.41639 -0.0268,0.93975 -0.0538,1.8792 -0.0806,2.81895 -0.0268,0.93976 -0.0398,1.71874 -0.0398,2.33629 v 3.9517 h -7.76025 l 0.0207,-0.0305 c 2.52805,-1.60977 4.51394,-3.762 5.95519,-6.45852 0.98318,-1.82591 1.67656,-3.8685 2.08721,-6.12159 z m 12.81421,16.51269 h 2.95434 l 1.71721,3.72328 1.73116,-3.72328 h 2.94039 l -3.30419,6.12107 v 3.92276 h -2.7342 v -3.84059 z" />
      <path
         d="m 152.93439,125.56503 q -0.48089,0 -0.85875,0.2061 -0.37784,0.19923 -0.64578,0.58395 -0.26793,0.38472 -0.41219,0.94119 -0.13743,0.54961 -0.13743,1.25035 0,0.94806 0.24046,1.59385 0.24044,0.64578 0.72822,0.97554 0.49464,0.32976 1.2366,0.32976 0.67327,0 1.29156,-0.18549 0.62519,-0.18549 1.25722,-0.44655 v 2.29459 q -0.66641,0.29541 -1.36713,0.42594 -0.69387,0.13053 -1.47705,0.13053 -1.63508,0 -2.67932,-0.64578 -1.03738,-0.65265 -1.53201,-1.80682 -0.48778,-1.15416 -0.48778,-2.67931 0,-1.14042 0.31602,-2.08849 0.3229,-0.94806 0.9412,-1.64193 0.61831,-0.70074 1.52515,-1.0786 0.91371,-0.38472 2.0885,-0.38472 0.7282,0 1.532,0.17175 0.81066,0.16488 1.58012,0.53586 l -0.83129,2.13658 q -0.54959,-0.26106 -1.11294,-0.43968 -0.56334,-0.17862 -1.19539,-0.17862 z m 14.05609,2.92663 q 0,1.16103 -0.28168,2.11597 -0.2748,0.94806 -0.86563,1.63507 -0.59083,0.687 -1.51826,1.05798 -0.92747,0.36411 -2.21903,0.36411 -1.26407,0 -2.19153,-0.36411 -0.92059,-0.37098 -1.5183,-1.05112 -0.59766,-0.687 -0.8862,-1.64193 -0.28857,-0.95493 -0.28857,-2.12971 0,-1.56637 0.51525,-2.72053 0.52215,-1.16104 1.60761,-1.79308 1.08545,-0.63891 2.77549,-0.63891 1.71751,0 2.78922,0.63891 1.0786,0.63891 1.58012,1.79995 0.50151,1.16103 0.50151,2.7274 z m -6.91125,0 q 0,0.90684 0.2061,1.5595 0.2061,0.65265 0.65266,1.00302 0.44655,0.35037 1.16789,0.35037 0.74884,0 1.18852,-0.35037 0.44655,-0.35037 0.63892,-1.00302 0.19923,-0.65266 0.19923,-1.5595 0,-1.36026 -0.45342,-2.15032 -0.45343,-0.79005 -1.5595,-0.79005 -0.73509,0 -1.18853,0.35724 -0.44655,0.35724 -0.65263,1.01676 -0.19924,0.65952 -0.19924,1.56637 z m 18.28801,5.03573 h -3.55867 l -3.66861,-7.07613 h -0.062 q 0.0344,0.32289 0.062,0.77631 0.0275,0.45343 0.0482,0.92746 0.0206,0.46716 0.0206,0.84501 v 4.52735 h -2.40451 v -10.04398 h 3.54494 l 3.65485,6.97995 h 0.0413 q -0.0206,-0.32976 -0.0413,-0.76258 -0.0206,-0.43968 -0.0411,-0.88623 -0.0138,-0.44655 -0.0138,-0.79005 v -4.54109 h 2.41825 z"
         id="path7"
         style="font-weight:800;font-size:10.229px;line-height:1.25;font-family:'Open Sans';-inkscape-font-specification:'Open Sans Ultra-Bold';fill:#ffffff;stroke:none;stroke-width:0.651979;stroke-dasharray:none;stroke-opacity:1" />
      <path
         d="m 157.00146,135.51443 v 6.04562 q 0,1.26409 -0.48091,2.19841 -0.48089,0.92746 -1.4427,1.43584 -0.96181,0.50151 -2.4114,0.50151 -2.07473,0 -3.16707,-1.06485 -1.09232,-1.06486 -1.09232,-3.00908 v -6.10745 h 2.72739 v 5.89448 q 0,1.06486 0.39846,1.54576 0.39845,0.4809 1.17477,0.4809 0.55649,0 0.90685,-0.2061 0.35038,-0.21297 0.50839,-0.66639 0.16489,-0.45342 0.16489,-1.16791 v -5.88074 z m 11.67218,10.04398 h -3.55867 l -3.66861,-7.07613 h -0.0619 q 0.0344,0.32289 0.0619,0.77632 0.0275,0.45342 0.0482,0.92745 0.0206,0.46716 0.0206,0.84501 v 4.52735 h -2.4045 v -10.04398 h 3.54493 l 3.65485,6.97995 h 0.0412 q -0.0206,-0.32976 -0.0412,-0.76258 -0.0206,-0.43968 -0.0411,-0.88623 -0.0137,-0.44655 -0.0137,-0.79005 v -4.54109 h 2.41827 z"
         id="path8"
         style="font-weight:800;font-size:10.229px;line-height:1.25;font-family:'Open Sans';-inkscape-font-specification:'Open Sans Ultra-Bold';fill:#ffffff;stroke:none;stroke-width:0.651979;stroke-dasharray:none;stroke-opacity:1" />
      <path
         d="m 155.02977,154.27455 q 0,0.81754 -0.41221,1.55263 -0.4122,0.72823 -1.28471,1.18163 -0.86561,0.45343 -2.23962,0.45343 -0.68702,0 -1.20911,-0.062 -0.51527,-0.062 -0.96182,-0.19924 -0.44655,-0.14426 -0.92744,-0.37097 v -2.41825 q 0.81753,0.41219 1.64879,0.63204 0.8313,0.21297 1.50454,0.21297 0.40534,0 0.65953,-0.0962 0.26106,-0.0962 0.38471,-0.26107 0.12366,-0.17175 0.12366,-0.39159 0,-0.26106 -0.18551,-0.43969 -0.17861,-0.18547 -0.57706,-0.38471 -0.39848,-0.19922 -1.05111,-0.49464 -0.55648,-0.26107 -1.00989,-0.53587 -0.44658,-0.27481 -0.76947,-0.62517 -0.31602,-0.35722 -0.48776,-0.83127 -0.17177,-0.47403 -0.17177,-1.11983 0,-0.96866 0.47405,-1.62131 0.48092,-0.65951 1.33278,-0.98929 0.85876,-0.32976 1.97857,-0.32976 0.98243,0 1.76559,0.21984 0.79007,0.21985 1.41525,0.50152 l -0.83129,2.09536 q -0.64578,-0.29542 -1.27097,-0.46717 -0.62514,-0.17862 -1.16102,-0.17862 -0.35038,0 -0.57707,0.0893 -0.21984,0.0825 -0.32977,0.22671 -0.10302,0.14425 -0.10302,0.32975 0,0.23359 0.17863,0.41908 0.18548,0.18549 0.61142,0.40532 0.43282,0.21298 1.17479,0.55648 0.73509,0.32976 1.25035,0.71449 0.51525,0.37785 0.78318,0.9137 0.27481,0.52899 0.27481,1.31217 z m 7.51579,3.05029 h -5.96318 v -10.04397 h 5.96318 v 2.1778 h -3.24951 v 1.58011 h 3.00907 v 2.17778 h -3.00907 v 1.89615 h 3.24951 z m 1.75873,0 v -10.04397 h 2.7274 v 10.04397 z m 11.46608,-3.05029 q 0,0.81754 -0.41221,1.55263 -0.41218,0.72823 -1.28468,1.18163 -0.86563,0.45343 -2.23963,0.45343 -0.687,0 -1.20914,-0.062 -0.51524,-0.062 -0.96179,-0.19924 -0.44655,-0.14426 -0.92745,-0.37097 v -2.41825 q 0.81752,0.41219 1.64879,0.63204 0.83128,0.21297 1.50455,0.21297 0.40532,0 0.65952,-0.0962 0.26107,-0.0962 0.38472,-0.26107 0.12365,-0.17175 0.12365,-0.39159 0,-0.26106 -0.18548,-0.43969 -0.17861,-0.18547 -0.57709,-0.38471 -0.39846,-0.19922 -1.0511,-0.49464 -0.55647,-0.26107 -1.00989,-0.53587 -0.44656,-0.27481 -0.76946,-0.62517 -0.31601,-0.35722 -0.48776,-0.83127 -0.17176,-0.47403 -0.17176,-1.11983 0,-0.96866 0.47404,-1.62131 0.48089,-0.65951 1.33277,-0.98929 0.85877,-0.32976 1.97857,-0.32976 0.98242,0 1.76561,0.21984 0.79006,0.21985 1.41522,0.50152 l -0.83126,2.09536 q -0.64578,-0.29542 -1.27096,-0.46717 -0.6252,-0.17862 -1.16104,-0.17862 -0.35038,0 -0.57709,0.0893 -0.21983,0.0825 -0.32975,0.22671 -0.10302,0.14425 -0.10302,0.32975 0,0.23359 0.17863,0.41908 0.18549,0.18549 0.61142,0.40532 0.43282,0.21298 1.17479,0.55648 0.73509,0.32976 1.25034,0.71449 0.51526,0.37785 0.7832,0.9137 0.27478,0.52899 0.27478,1.31217 z"
         id="path9"
         style="font-weight:800;font-size:10.229px;line-height:1.25;font-family:'Open Sans';-inkscape-font-specification:'Open Sans Ultra-Bold';fill:#ffffff;stroke:none;stroke-width:0.651979;stroke-dasharray:none;stroke-opacity:1" />
      <path
         d="m 166.13001,159.97334 v 6.04563 c 0,0.84272 -0.1603,1.57552 -0.4809,2.19841 -0.3206,0.61831 -0.8015,1.09692 -1.44271,1.43584 -0.64119,0.33434 -1.44499,0.50151 -2.41138,0.50151 -1.38316,0 -2.43885,-0.35496 -3.16708,-1.06488 -0.72822,-0.70989 -1.09233,-1.71291 -1.09233,-3.00906 v -6.10745 h 2.7274 v 5.8945 c 0,0.7099 0.13282,1.22515 0.39846,1.54574 0.26565,0.32061 0.65724,0.48091 1.17478,0.48091 0.37098,0 0.67326,-0.0687 0.90684,-0.2061 0.23359,-0.14199 0.40304,-0.36412 0.50837,-0.66639 0.10993,-0.30229 0.16489,-0.69159 0.16489,-1.1679 v -5.88076 z m 11.67217,10.044 h -3.55868 l -3.66857,-7.07615 h -0.0618 c 0.0229,0.21527 0.0435,0.47404 0.0618,0.77631 0.0183,0.30229 0.0344,0.61145 0.0482,0.92748 0.0137,0.31144 0.0206,0.59311 0.0206,0.845 v 4.52736 h -2.40451 v -10.044 h 3.54493 l 3.65488,6.97996 h 0.0411 c -0.0137,-0.21984 -0.0274,-0.47403 -0.0411,-0.76257 -0.0137,-0.29313 -0.0275,-0.58854 -0.0412,-0.88625 -0.009,-0.29769 -0.0137,-0.56104 -0.0137,-0.79005 v -4.54109 h 2.41825 z"
         id="path10"
         style="font-weight:800;font-size:10.229px;line-height:1.25;font-family:'Open Sans';-inkscape-font-specification:'Open Sans Ultra-Bold';fill:#ffffff;stroke:none;stroke-width:0.651979;stroke-dasharray:none;stroke-opacity:1"
         sodipodi:nodetypes="csccsssccsssccsccccccscsccccccccsccc" />
      <path
         d="m 152.93439,174.14578 q -0.48089,0 -0.85875,0.20609 -0.37784,0.19923 -0.64578,0.58395 -0.26793,0.38473 -0.41219,0.94119 -0.13743,0.54961 -0.13743,1.25036 0,0.94807 0.24046,1.59383 0.24044,0.6458 0.72822,0.97555 0.49464,0.32976 1.2366,0.32976 0.67327,0 1.29156,-0.18547 0.62519,-0.18551 1.25722,-0.44656 v 2.29458 q -0.66641,0.29541 -1.36713,0.42595 -0.69387,0.13053 -1.47705,0.13053 -1.63508,0 -2.67932,-0.64577 -1.03738,-0.65268 -1.53201,-1.80683 -0.48778,-1.15415 -0.48778,-2.6793 0,-1.14044 0.31602,-2.0885 0.3229,-0.94808 0.9412,-1.64194 0.61831,-0.70075 1.52515,-1.07859 0.91371,-0.38473 2.0885,-0.38473 0.7282,0 1.532,0.17176 0.81066,0.16488 1.58012,0.53587 l -0.83129,2.13658 q -0.54959,-0.26107 -1.11294,-0.4397 -0.56334,-0.17861 -1.19539,-0.17861 z m 13.19734,-2.08163 v 6.04563 q 0,1.2641 -0.48091,2.1984 -0.4809,0.92746 -1.44271,1.43584 -0.9618,0.50152 -2.41137,0.50152 -2.07476,0 -3.1671,-1.06486 -1.09232,-1.06485 -1.09232,-3.00908 v -6.10745 h 2.72739 v 5.89449 q 0,1.06486 0.39847,1.54576 0.39846,0.4809 1.17477,0.4809 0.55648,0 0.90685,-0.20611 0.35038,-0.21296 0.50839,-0.66638 0.16487,-0.45343 0.16487,-1.16792 v -5.88074 z m 8.2715,10.044 -0.49465,-1.8824 h -3.26324 l -0.50839,1.8824 h -2.98158 l 3.27698,-10.08522 h 3.62051 l 3.31823,10.08522 z m -1.05797,-4.10829 -0.43281,-1.64879 q -0.0687,-0.26794 -0.19924,-0.76259 -0.13054,-0.50151 -0.26104,-1.0305 -0.12367,-0.53586 -0.19237,-0.87937 -0.0619,0.34351 -0.17863,0.85189 -0.10985,0.50152 -0.23359,0.99615 -0.11672,0.49463 -0.2061,0.82442 l -0.4328,1.64879 z m 9.54247,4.10829 h -2.71367 v -7.82497 h -2.45259 v -2.21903 h 7.61198 v 2.21903 h -2.44572 z m 7.1723,-10.044 q 1.36714,0 2.27398,0.33665 0.90684,0.32975 1.36028,0.98927 0.46029,0.65953 0.46029,1.64195 0,0.61142 -0.20611,1.11295 -0.20611,0.50151 -0.59084,0.89995 -0.37784,0.3916 -0.90682,0.68702 l 2.92663,4.37621 h -3.07778 l -2.12971,-3.65488 h -0.687 v 3.65488 h -2.71367 v -10.044 z m -0.0412,2.05413 h -0.53587 v 2.29461 h 0.50838 q 0.62518,0 1.02364,-0.27481 0.39846,-0.2748 0.39846,-0.98241 0,-0.48778 -0.32976,-0.76258 -0.32976,-0.27481 -1.06485,-0.27481 z m 15.67053,2.95413 q 0,1.16104 -0.28166,2.11596 -0.27481,0.94808 -0.86563,1.63507 -0.59083,0.68699 -1.51829,1.05798 -0.92744,0.36412 -2.21901,0.36412 -1.26408,0 -2.19155,-0.36412 -0.92058,-0.37099 -1.51826,-1.05113 -0.5977,-0.68698 -0.88625,-1.64192 -0.28854,-0.95492 -0.28854,-2.12971 0,-1.56637 0.51526,-2.72053 0.52212,-1.16102 1.60759,-1.79307 1.08546,-0.63893 2.7755,-0.63893 1.71748,0 2.78923,0.63893 1.07858,0.6389 1.58009,1.79996 0.50152,1.16102 0.50152,2.72739 z m -6.91124,0 q 0,0.90683 0.2061,1.55949 0.20608,0.65265 0.65264,1.00303 0.44655,0.35037 1.16791,0.35037 0.74883,0 1.18851,-0.35037 0.44655,-0.35038 0.63891,-1.00303 0.19923,-0.65266 0.19923,-1.55949 0,-1.36026 -0.45341,-2.15032 -0.45344,-0.79006 -1.55949,-0.79006 -0.73511,0 -1.18852,0.35725 -0.44655,0.35724 -0.65266,1.01676 -0.19922,0.65952 -0.19922,1.56637 z"
         id="path11"
         style="font-weight:800;font-size:10.229px;line-height:1.25;font-family:'Open Sans';-inkscape-font-specification:'Open Sans Ultra-Bold';fill:#ffffff;stroke:none;stroke-width:0.651979;stroke-dasharray:none;stroke-opacity:1" />
    </g>
  </g>
</svg>
