<?xml version="1.0" encoding="UTF-8" standalone="no"?>
<!-- Created with Inkscape (http://www.inkscape.org/) -->

<svg
   width="28.947561mm"
   height="7.9914374mm"
   viewBox="0 0 28.947561 7.9914374"
   version="1.1"
   id="svg1"
   inkscape:version="1.4 (86a8ad7, 2024-10-11)"
   sodipodi:docname="modo_oscuro.svg"
   xmlns:inkscape="http://www.inkscape.org/namespaces/inkscape"
   xmlns:sodipodi="http://sodipodi.sourceforge.net/DTD/sodipodi-0.dtd"
   xmlns="http://www.w3.org/2000/svg"
   xmlns:svg="http://www.w3.org/2000/svg">
  <sodipodi:namedview
     id="namedview1"
     pagecolor="#ffffff"
     bordercolor="#666666"
     borderopacity="1.0"
     inkscape:showpageshadow="2"
     inkscape:pageopacity="0.0"
     inkscape:pagecheckerboard="0"
     inkscape:deskcolor="#d1d1d1"
     inkscape:document-units="mm"
     inkscape:zoom="5.5090348"
     inkscape:cx="49.4642"
     inkscape:cy="16.06452"
     inkscape:window-width="1920"
     inkscape:window-height="991"
     inkscape:window-x="-1"
     inkscape:window-y="1341"
     inkscape:window-maximized="1"
     inkscape:current-layer="layer1" />
  <defs
     id="defs1">
    <clipPath
       clipPathUnits="userSpaceOnUse"
       id="clipPath62">
      <path
         d="M 0,0 H 1125 V 2000 H 0 Z"
         transform="matrix(0.5049066,-0.50492422,0.50492422,0.5049066,97.487363,349.56745)"
         id="path62" />
    </clipPath>
  </defs>
  <g
     inkscape:label="Capa 1"
     inkscape:groupmode="layer"
     id="layer1"
     transform="translate(-12.344144,-16.202125)">
    <path
       id="path61"
       clip-path="url(#clipPath62)"
       style="fill:#191919;fill-opacity:1;fill-rule:nonzero;stroke:none"
       transform="matrix(0.08384096,0.08384389,-0.08384389,0.08384096,28.031503,-27.594791)"
       d="m 314.20001,235.10001 h 3 V 245.2 h -3 z m 9.45016,12.7621 7.14166,-7.14191 2.12136,2.12128 -7.14166,7.14191 z m 4.80628,8.58273 h 10.09998 v 3 h -10.09998 z m -4.80592,11.49908 2.12128,-2.12136 7.14191,7.14166 -2.12128,2.12136 z m -9.43894,2.65738 h 3 v 10.09998 h -3 z m -15.66327,2.36354 7.14166,-7.14192 2.12136,2.12129 -7.14166,7.14191 z m -5.59319,-16.50838 h 10.10001 v 3 h -10.10001 z m 5.59267,-13.6144 2.12128,-2.12135 7.14191,7.14166 -2.12128,2.12136 z m 24.60746,7.63634 c 0.98456,0.98457 1.74325,2.12004 2.27613,3.40639 0.53286,1.28641 0.79929,2.62578 0.79934,4.01818 0,1.3924 -0.26639,2.73178 -0.7992,4.01817 -0.53281,1.28643 -1.29149,2.42191 -2.27601,3.40651 -0.98457,0.98456 -2.12006,1.74331 -3.40647,2.27617 -1.28638,0.53287 -2.62576,0.79931 -4.01814,0.79933 -1.39242,3e-5 -2.7318,-0.26636 -4.0182,-0.7992 -1.28642,-0.53279 -2.42187,-1.29148 -3.40643,-2.27605 -0.98462,-0.98454 -1.74336,-2.11998 -2.27621,-3.40639 -0.53289,-1.28639 -0.79934,-2.62577 -0.79932,-4.01816 -4e-5,-1.39239 0.26634,-2.73178 0.79914,-4.01818 0.53287,-1.28642 1.29157,-2.42193 2.27612,-3.40652 0.98454,-0.98457 2.12,-1.74328 3.40638,-2.27617 1.28638,-0.53285 2.62576,-0.79928 4.01817,-0.79931 1.39236,-4e-5 2.73176,0.26636 4.01817,0.79919 1.28639,0.53283 2.42191,1.2915 3.40653,2.27604 z m -6.12589,-45.13494 c -2.29941,2.26768 -4.47713,4.67939 -6.82289,6.87244 -40.3621,40.3919 -80.78197,80.72823 -121.10794,121.15531 -0.15009,0.1583 -0.29985,0.31631 -0.44993,0.4746 -8.47713,9.20589 -10.39741,23.65892 -4.72989,34.79623 2.66322,5.5743 7.31592,9.82814 11.84036,13.8862 9.73556,8.00118 24.41095,9.05204 35.23379,2.62812 5.64751,-3.23224 9.67847,-8.49284 14.37002,-12.87892 40.36212,-40.39192 80.78199,-80.72822 121.10794,-121.15531 8.7961,-9.11306 10.92755,-23.76664 5.27537,-35.07052 -2.65176,-5.66602 -7.35817,-9.97885 -11.93899,-14.08342 -9.73555,-8.0012 -24.41403,-9.05514 -35.23688,-2.63121 -2.82375,1.61612 -5.24157,3.73882 -7.54096,6.00648 z m -47.05753,53.44468 c 17.4248,-17.42586 34.8422,-34.85946 52.2873,-52.26447 7.61225,-7.13385 19.53458,-9.06312 28.99003,-4.63855 5.40474,2.3426 9.41969,6.82459 13.31339,11.08178 6.80033,8.17652 7.89303,20.50891 2.59228,29.73584 -2.91577,5.32081 -7.87194,9.03434 -11.93851,13.41204 -21.51711,21.50271 -43.03267,43.0051 -64.54015,64.51775 z m -57.19317,68.41298 c 7.70759,7.00023 8.27158,7.00329 15.97892,0.003 -7.00023,7.70759 -7.00022,8.26849 2.8e-4,15.97584 -7.70758,-7.00022 -8.27158,-6.99714 -15.97892,0.003 7.00021,-7.70758 7.00021,-8.27466 -2.8e-4,-15.982 z m 13.85854,-7.21464 c 6.78817,-2.68713 14.85004,-0.84595 19.58775,5.02292 5.93984,7.35382 4.8765,18.1719 -2.47731,24.11173 -3.46478,2.8992 -7.77923,4.10128 -12.02188,3.81851 1.62632,-0.63644 3.04505,-1.4851 4.45926,-2.61649 7.35382,-5.93984 8.41097,-16.75793 2.47115,-24.11173 -3.04062,-3.74761 -7.49349,-5.94219 -12.01897,-6.22494 z m -19.4263,63.73728 c 1.95604,0.57735 3.95445,0.96416 5.96939,1.16172 -2.0258,-0.15076 -4.03064,-0.53914 -5.96939,-1.16172 z"
       inkscape:label="boton_modo_oscuro" />
  </g>
</svg>
