<?xml version="1.0" encoding="UTF-8" standalone="no"?>
<!-- Created with Inkscape (http://www.inkscape.org/) -->

<svg
   width="28.947561mm"
   height="7.9914374mm"
   viewBox="0 0 28.947561 7.9914374"
   version="1.1"
   id="svg1"
   inkscape:version="1.4 (86a8ad7, 2024-10-11)"
   sodipodi:docname="modo_claro.svg"
   xmlns:inkscape="http://www.inkscape.org/namespaces/inkscape"
   xmlns:sodipodi="http://sodipodi.sourceforge.net/DTD/sodipodi-0.dtd"
   xmlns="http://www.w3.org/2000/svg"
   xmlns:svg="http://www.w3.org/2000/svg">
  <sodipodi:namedview
     id="namedview1"
     pagecolor="#ffffff"
     bordercolor="#666666"
     borderopacity="1.0"
     inkscape:showpageshadow="2"
     inkscape:pageopacity="0.0"
     inkscape:pagecheckerboard="0"
     inkscape:deskcolor="#d1d1d1"
     inkscape:document-units="mm"
     inkscape:zoom="5.5090348"
     inkscape:cx="49.4642"
     inkscape:cy="16.06452"
     inkscape:window-width="1920"
     inkscape:window-height="991"
     inkscape:window-x="-1"
     inkscape:window-y="1341"
     inkscape:window-maximized="1"
     inkscape:current-layer="layer1" />
  <defs
     id="defs1">
    <clipPath
       clipPathUnits="userSpaceOnUse"
       id="clipPath62">
      <path
         d="M 0,0 H 1125 V 2000 H 0 Z"
         transform="matrix(0.5049066,-0.50492422,0.50492422,0.5049066,97.487363,349.56745)"
         id="path62" />
    </clipPath>
  </defs>
  <g
     inkscape:label="Capa 1"
     inkscape:groupmode="layer"
     id="layer1"
     transform="translate(-12.344144,-16.202125)">
    <path
       id="path38-4-1"
       clip-path="none"
       style="fill:#ffffff;fill-opacity:1;fill-rule:nonzero;stroke:none;stroke-width:0.121821"
       d="m 37.394333,16.202501 c -0.38296,-0.0027 -0.76771,0.01643 -1.14825,0.0036 -6.77061,0.0024 -13.54141,-0.0047 -20.31194,0.0036 -1.50155,0.02655 -2.90886,1.076408 -3.38274,2.498038 -0.25273,0.697379 -0.21975,1.453574 -0.17983,2.181779 0.14538,1.487094 1.28767,2.806158 2.73368,3.175 0.37225,0.101256 0.75294,0.126005 1.13585,0.128675 0.38291,0.0027 0.76771,-0.01694 1.14825,-0.0041 6.77061,-0.0024 13.54141,0.0047 20.31194,-0.0036 0.0258,-7.93e-4 0.0517,-0.0013 0.0775,-0.0021 1.48258,-0.06108 2.85538,-1.111826 3.31401,-2.520777 0.24408,-0.690649 0.21065,-1.437396 0.17156,-2.156974 -0.14539,-1.487095 -1.28767,-2.805641 -2.73368,-3.174483 -0.37225,-0.101258 -0.75341,-0.125928 -1.13636,-0.128674 z m -21.16718,0.528133 c 0.35654,-0.0024 0.71519,0.01717 1.06918,0.0041 3.60689,0.0013 7.21362,0.0023 10.82053,0.0021 l -3.4494,6.921024 c -2.92197,3.7e-5 -5.84396,0.0014 -8.76588,-0.0021 -1.23634,-0.04013 -2.39768,-0.877992 -2.81946,-2.041735 -0.25673,-0.649559 -0.21756,-1.361964 -0.18707,-2.045354 0.11541,-1.255694 1.05779,-2.381268 2.27583,-2.710429 0.34529,-0.100815 0.69972,-0.125227 1.05627,-0.12764 z m 16.48064,1.011825 h 0.35605 v 1.197343 h -0.35605 z m 7.29362,0.104903 c 0.1572,0.182491 0.29273,0.383144 0.40307,0.597896 -0.11559,-0.212408 -0.2507,-0.412392 -0.40307,-0.597896 z m -5.33198,0.558105 0.25166,0.251665 -0.84697,0.846976 -0.25167,-0.251664 z m -3.57187,0.0093 0.84697,0.846977 -0.25166,0.251664 -0.84698,-0.846977 z m 1.788,0.785999 c 0.1651,0 0.32393,0.03139 0.47646,0.09457 0.15253,0.06318 0.28736,0.153526 0.40411,0.270268 0.11674,0.116738 0.20657,0.251062 0.26975,0.403593 0.0632,0.152528 0.0951,0.311357 0.0951,0.476457 -1e-5,0.165095 -0.0319,0.323929 -0.0951,0.476456 -0.0632,0.152532 -0.15301,0.287366 -0.26975,0.40411 -0.11675,0.11674 -0.25158,0.206572 -0.40411,0.269751 -0.15253,0.06318 -0.31136,0.09457 -0.47646,0.09457 -0.1651,-4e-6 -0.32393,-0.03139 -0.47646,-0.09457 -0.15253,-0.06318 -0.28685,-0.153011 -0.40359,-0.269751 -0.11674,-0.116744 -0.20657,-0.251579 -0.26975,-0.40411 -0.0632,-0.152528 -0.0951,-0.311361 -0.0951,-0.476456 -10e-6,-0.1651 0.0319,-0.323927 0.0951,-0.476457 0.0632,-0.152532 0.15301,-0.286855 0.26975,-0.403593 0.11674,-0.116743 0.25107,-0.207087 0.40359,-0.270268 0.15254,-0.06318 0.31136,-0.09457 0.47646,-0.09457 z m -2.70319,1.067121 h 1.19734 v 0.355534 h -1.19734 z m 4.20904,0 h 1.19786 v 0.355534 h -1.19786 z m -2.69751,1.115177 0.25115,0.251665 -0.84646,0.846459 -0.25166,-0.251147 z m 2.38125,0.0072 0.84646,0.846977 -0.25115,0.251664 -0.84697,-0.846977 z m -1.36736,0.561206 h 0.35605 v 1.19786 h -0.35605 z"
       inkscape:label="boton_modo_claro" />
  </g>
</svg>
