<?xml version="1.0" encoding="UTF-8" standalone="no"?>
<!-- Created with Inkscape (http://www.inkscape.org/) -->

<svg
   width="16.445999mm"
   height="16.446188mm"
   viewBox="0 0 16.445999 16.446188"
   version="1.1"
   id="svg1"
   inkscape:version="1.4 (86a8ad7, 2024-10-11)"
   sodipodi:docname="boton_n.svg"
   xmlns:inkscape="http://www.inkscape.org/namespaces/inkscape"
   xmlns:sodipodi="http://sodipodi.sourceforge.net/DTD/sodipodi-0.dtd"
   xmlns="http://www.w3.org/2000/svg"
   xmlns:svg="http://www.w3.org/2000/svg">
  <sodipodi:namedview
     id="namedview1"
     pagecolor="#ffffff"
     bordercolor="#666666"
     borderopacity="1.0"
     inkscape:showpageshadow="2"
     inkscape:pageopacity="0.0"
     inkscape:pagecheckerboard="0"
     inkscape:deskcolor="#d1d1d1"
     inkscape:document-units="px"
     inkscape:zoom="0.68862935"
     inkscape:cx="145.94208"
     inkscape:cy="98.0208"
     inkscape:window-width="1920"
     inkscape:window-height="991"
     inkscape:window-x="-1"
     inkscape:window-y="1341"
     inkscape:window-maximized="1"
     inkscape:current-layer="layer2" />
  <defs
     id="defs1" />
  <g
     inkscape:groupmode="layer"
     id="layer2"
     inkscape:label="Capa 2"
     transform="translate(-21.769726,-15.695752)">
    <path
       fill="#191919"
       d="m 21.773507,24.162065 c -0.0083,-0.270097 -0.0028,-0.538811 0.01516,-0.807529 0.01929,-0.268718 0.04961,-0.536057 0.09508,-0.80064 0.0441,-0.265963 0.101975,-0.529167 0.172255,-0.78824 0.07028,-0.260448 0.15434,-0.515387 0.249425,-0.767567 0.09646,-0.252179 0.203949,-0.498848 0.323839,-0.740007 0.119889,-0.241156 0.250802,-0.475421 0.394118,-0.702797 0.141938,-0.228756 0.296279,-0.449242 0.460265,-0.662838 0.165365,-0.212217 0.338998,-0.417544 0.525033,-0.613227 0.184657,-0.195682 0.377582,-0.383095 0.580154,-0.559484 0.20395,-0.176389 0.414789,-0.343133 0.633897,-0.500228 0.219109,-0.155716 0.446485,-0.300412 0.679373,-0.434083 0.234268,-0.135047 0.474044,-0.256314 0.719337,-0.366557 0.24529,-0.110243 0.496094,-0.209462 0.751029,-0.294901 0.254938,-0.08544 0.514008,-0.158475 0.775836,-0.219107 0.263204,-0.06064 0.527787,-0.107488 0.795129,-0.141937 0.265959,-0.03447 0.534677,-0.0565 0.803395,-0.06339 0.270097,-0.0083 0.538812,-0.0028 0.80753,0.01517 0.268718,0.01792 0.53468,0.04961 0.80064,0.0937 0.265962,0.04548 0.529166,0.103353 0.788239,0.173634 0.260449,0.07028 0.515387,0.152961 0.767567,0.248045 0.25218,0.09646 0.498849,0.203951 0.740008,0.323839 0.241155,0.119892 0.475421,0.250804 0.704176,0.39412 0.227376,0.141937 0.447862,0.296277 0.661459,0.460266 0.213596,0.165364 0.417544,0.338998 0.613226,0.523653 0.197062,0.184658 0.383096,0.378961 0.559485,0.581533 0.177768,0.202572 0.344508,0.413413 0.500228,0.633899 0.157095,0.219107 0.301791,0.445103 0.435458,0.677993 0.133671,0.234266 0.256318,0.474045 0.366561,0.719335 0.110243,0.245294 0.209462,0.496094 0.294898,0.751032 0.08544,0.254939 0.158474,0.514008 0.21911,0.775836 0.06063,0.263204 0.108864,0.527788 0.143316,0.795126 0.03447,0.267342 0.05512,0.534681 0.06339,0.803399 0.0083,0.270093 0.0028,0.538811 -0.01517,0.807529 -0.01792,0.268718 -0.04961,0.536057 -0.09509,0.80064 -0.0441,0.265963 -0.101974,0.529167 -0.172255,0.78824 -0.07028,0.260449 -0.15296,0.516763 -0.248045,0.767567 -0.09508,0.252179 -0.202572,0.498849 -0.32246,0.740004 -0.119891,0.241159 -0.250804,0.475425 -0.39412,0.70418 -0.143316,0.228755 -0.29628,0.449241 -0.460265,0.661458 -0.165365,0.213597 -0.338999,0.418924 -0.523653,0.614606 -0.184658,0.195679 -0.378961,0.383092 -0.581533,0.559481 -0.202572,0.177768 -0.413413,0.344512 -0.63252,0.500228 -0.220486,0.15572 -0.446486,0.301791 -0.679372,0.435462 -0.234266,0.133668 -0.474046,0.256314 -0.719336,0.366557 -0.245293,0.111623 -0.496093,0.209462 -0.751032,0.294902 -0.254938,0.08682 -0.514008,0.15985 -0.775836,0.220486 -0.261828,0.06063 -0.527787,0.107484 -0.79375,0.141936 -0.267338,0.03447 -0.536056,0.0565 -0.804774,0.06477 -0.268718,0.0083 -0.538812,0.0028 -0.80753,-0.01517 -0.268718,-0.01792 -0.536056,-0.04961 -0.802019,-0.09509 C 28.3674,31.983799 28.105576,31.925925 27.845127,31.855644 27.584675,31.785364 27.32836,31.702683 27.076181,31.607599 26.825377,31.511139 26.578708,31.403648 26.336173,31.28376 26.095018,31.163872 25.860751,31.032956 25.631997,30.88964 25.403242,30.747703 25.182756,30.593363 24.96916,30.429374 24.755564,30.26401 24.551615,30.089 24.354555,29.904342 24.158874,29.719688 23.972839,29.52676 23.795072,29.322813 23.617305,29.12024 23.45194,28.90802 23.294844,28.688913 c -0.155719,-0.219107 -0.30179,-0.446482 -0.43546,-0.679372 -0.13367,-0.234266 -0.256315,-0.474045 -0.366558,-0.719335 -0.110243,-0.245294 -0.209462,-0.496094 -0.294901,-0.752412 -0.08544,-0.254935 -0.158474,-0.514008 -0.219108,-0.777212 -0.06063,-0.261828 -0.107487,-0.526411 -0.141938,-0.79375 -0.03445,-0.267338 -0.05512,-0.536056 -0.06339,-0.804774 z m 10.718381,4.063835 -3.770312,-4.311883 3.770312,-4.310504 -0.880565,-0.775832 -4.452444,5.086336 4.452444,5.087719 z m 0,0"
       fill-opacity="1"
       fill-rule="nonzero"
       id="path56"
       style="stroke-width:0.352778" />
  </g>
</svg>
