<?xml version="1.0" encoding="UTF-8" standalone="no"?>
<!-- Created with Inkscape (http://www.inkscape.org/) -->

<svg
   width="16.445999mm"
   height="16.446188mm"
   viewBox="0 0 16.445999 16.446188"
   version="1.1"
   id="svg1"
   inkscape:version="1.4 (86a8ad7, 2024-10-11)"
   sodipodi:docname="boton_r.svg"
   xmlns:inkscape="http://www.inkscape.org/namespaces/inkscape"
   xmlns:sodipodi="http://sodipodi.sourceforge.net/DTD/sodipodi-0.dtd"
   xmlns="http://www.w3.org/2000/svg"
   xmlns:svg="http://www.w3.org/2000/svg">
  <sodipodi:namedview
     id="namedview1"
     pagecolor="#ffffff"
     bordercolor="#666666"
     borderopacity="1.0"
     inkscape:showpageshadow="2"
     inkscape:pageopacity="0.0"
     inkscape:pagecheckerboard="0"
     inkscape:deskcolor="#d1d1d1"
     inkscape:document-units="px"
     inkscape:zoom="5.5090348"
     inkscape:cx="39.84364"
     inkscape:cy="40.20668"
     inkscape:window-width="1920"
     inkscape:window-height="991"
     inkscape:window-x="-1"
     inkscape:window-y="1341"
     inkscape:window-maximized="1"
     inkscape:current-layer="layer2" />
  <defs
     id="defs1">
    <clipPath
       id="88d53caac1">
      <path
         d="m 196.60156,310.0625 h 47.25 v 47.25 h -47.25 z m 0,0"
         clip-rule="nonzero"
         id="path3" />
    </clipPath>
  </defs>
  <g
     inkscape:groupmode="layer"
     id="layer2"
     inkscape:label="Capa 2"
     transform="translate(-21.769726,-15.695752)">
    <g
       clip-path="url(#88d53caac1)"
       id="g56"
       transform="matrix(0.35277778,0,0,0.35277778,-47.707508,-93.83797)">
      <path
         fill="#cc0100"
         d="m 243.55469,334.48828 c 0.0195,-0.76562 0.004,-1.52734 -0.0469,-2.28906 -0.0508,-0.76172 -0.14062,-1.51953 -0.26953,-2.26953 -0.125,-0.75391 -0.28906,-1.5 -0.48828,-2.23438 -0.19922,-0.73828 -0.4375,-1.46094 -0.70703,-2.17578 -0.26953,-0.71484 -0.57422,-1.41406 -0.91406,-2.09766 -0.33985,-0.68359 -0.71485,-1.34765 -1.11719,-1.99218 -0.40625,-0.64844 -0.84375,-1.27344 -1.3086,-1.87891 -0.46875,-0.60156 -0.96093,-1.18359 -1.48437,-1.73828 -0.52344,-0.55469 -1.07422,-1.08594 -1.64844,-1.58594 -0.57422,-0.5 -1.17578,-0.97265 -1.79687,-1.41797 -0.6211,-0.4414 -1.26172,-0.85156 -1.92578,-1.23047 -0.66016,-0.38281 -1.33985,-0.72656 -2.03907,-1.03906 -0.69531,-0.3125 -1.40234,-0.59375 -2.1289,-0.83594 -0.72266,-0.24218 -1.45703,-0.44921 -2.19922,-0.62109 -0.7461,-0.17187 -1.4961,-0.30469 -2.25,-0.40234 -0.75781,-0.0977 -1.51953,-0.16016 -2.28125,-0.17969 -0.76172,-0.0234 -1.52735,-0.008 -2.28516,0.043 -0.76172,0.0508 -1.51953,0.14062 -2.27344,0.26562 -0.7539,0.12891 -1.49609,0.29297 -2.23437,0.49219 -0.73438,0.19922 -1.46094,0.43359 -2.17578,0.70313 -0.71094,0.27343 -1.41016,0.57812 -2.09375,0.91796 -0.6836,0.33985 -1.35156,0.71094 -1.9961,1.11719 -0.64843,0.40235 -1.27343,0.83985 -1.8789,1.30469 -0.60156,0.46875 -1.1836,0.96094 -1.73828,1.48437 -0.55469,0.52344 -1.08594,1.07422 -1.58594,1.64844 -0.50391,0.57422 -0.97656,1.17188 -1.41797,1.79688 -0.44141,0.62109 -0.85547,1.26172 -1.23437,1.92187 -0.37891,0.66406 -0.72657,1.34375 -1.03907,2.03906 -0.3125,0.69532 -0.58984,1.40625 -0.83593,2.12891 -0.24219,0.72266 -0.44922,1.45703 -0.6211,2.19922 -0.17187,0.74609 -0.30469,1.49609 -0.40234,2.25391 -0.0977,0.75781 -0.16016,1.51562 -0.1836,2.27734 -0.0234,0.76562 -0.008,1.52734 0.043,2.28906 0.0547,0.76172 0.14063,1.51953 0.26953,2.26953 0.125,0.75391 0.28907,1.5 0.48829,2.23438 0.19921,0.73828 0.43359,1.46484 0.70312,2.17578 0.27344,0.71484 0.57813,1.41406 0.91797,2.09766 0.33594,0.68359 0.71094,1.34765 1.11328,1.99609 0.40625,0.64844 0.83984,1.27344 1.30859,1.875 0.46485,0.60547 0.96094,1.1875 1.48438,1.74219 0.51953,0.55468 1.07031,1.08593 1.64453,1.58593 0.57422,0.50391 1.17578,0.97657 1.79688,1.41797 0.62109,0.44141 1.26171,0.85547 1.92578,1.23438 0.66015,0.3789 1.33984,0.72656 2.03515,1.03906 0.69532,0.31641 1.40625,0.59375 2.12891,0.83594 0.72266,0.24609 1.45703,0.45312 2.19922,0.625 0.74609,0.17187 1.49609,0.30469 2.2539,0.40234 0.75391,0.0977 1.51563,0.16016 2.27735,0.1836 0.76562,0.0234 1.52734,0.008 2.28906,-0.043 0.76172,-0.0508 1.51953,-0.14063 2.27344,-0.26953 0.7539,-0.125 1.5,-0.28907 2.23437,-0.48829 0.73828,-0.19921 1.46485,-0.43359 2.17969,-0.70312 0.71484,-0.27344 1.41406,-0.57813 2.09766,-0.91797 0.68359,-0.33984 1.34765,-0.71094 1.99609,-1.11719 0.64844,-0.40234 1.27344,-0.83984 1.87891,-1.30468 0.60547,-0.46875 1.1875,-0.96485 1.74218,-1.48829 0.55469,-0.52343 1.08594,-1.07031 1.58594,-1.64843 0.50391,-0.57422 0.97656,-1.17578 1.41797,-1.79688 0.44531,-0.62109 0.85547,-1.26562 1.23438,-1.92578 0.38281,-0.66406 0.72656,-1.34375 1.03906,-2.03906 0.3164,-0.69531 0.59375,-1.40625 0.83594,-2.13281 0.24218,-0.72266 0.45312,-1.45704 0.62109,-2.20313 0.17187,-0.74219 0.30859,-1.49219 0.40234,-2.25 0.0977,-0.75781 0.16016,-1.51953 0.1836,-2.28125 z m -30.38672,11.51953 10.6875,-12.22265 -10.6875,-12.21875 2.49609,-2.19922 12.6211,14.41797 -12.6211,14.42187 z m 0,0"
         fill-opacity="1"
         fill-rule="nonzero"
         id="path55" />
    </g>
  </g>
</svg>
